<svg xmlns="http://www.w3.org/2000/svg" viewBox="0 0 141.27 74.84"><defs><style>.cls-1{fill:#87868a;}.cls-2{fill:#4a72b2;}</style></defs><title>Asset 1</title><g id="Layer_2" data-name="Layer 2"><g id="Layer_1-2" data-name="Layer 1"><path class="cls-1" d="M19.31,55.89a27.55,27.55,0,0,1,19-45.09l0-.68c-.66.05-1.32.12-2,.22a28.25,28.25,0,0,0-18,45.55Z"/><rect class="cls-1" x="44.71" y="66.04" width="0.75" height="8.8" transform="matrix(1, -0.02, 0.02, 1, -1.11, 0.73)"/><path class="cls-2" d="M46.06,17.2c.72,3.09,1.47,6.28.37,9.57a8,8,0,0,0,.14,5.08c.5,1.64,1,3.39,1.7,5.09H49c-.69-1.75-1.26-3.58-1.78-5.29A7.42,7.42,0,0,1,47,27c1.16-3.46.39-6.74-.35-9.91C45.3,11.18,40.9,3,18.69,0l-.08.63C29.05,2.06,43.27,5.32,46.06,17.2"/><path class="cls-2" d="M47.08,46.43a1.25,1.25,0,0,1,.38-.46H46.6a2.12,2.12,0,0,0-.11.21,2.46,2.46,0,0,0,.62,2.46A1.87,1.87,0,0,1,47.59,50a1.06,1.06,0,0,1-.5.69,1.68,1.68,0,0,0-.6,2.42,1.4,1.4,0,0,1,0,1.11,2,2,0,0,1-1.11,1c-2.53,1-2.38,3-2,5,.46,2.49.37,3.9-.3,4.7a3.29,3.29,0,0,1-2,.92c-.39,0-.76.06-1.11.07-1.35,0-4.84-.34-4.84-.34C32.2,65,3.14,55.5.42,54L0,54.6c2.72,1.51,33.15,11.45,36.76,11.79.58.07,1.11.13,1.56.15h.5c.32,0,.75,0,1,0a9.67,9.67,0,0,0,1.66-.14,4.67,4.67,0,0,0,2.08-1.18c.81-1,.94-2.52.44-5.23-.35-1.84-.47-3.43,1.62-4.29a2.55,2.55,0,0,0,1.46-1.31,2,2,0,0,0,0-1.59c-.34-.82-.34-1.17.36-1.65a1.67,1.67,0,0,0,.77-1.12,2.39,2.39,0,0,0-.6-1.79c-.38-.51-.79-1.24-.54-1.83"/><path class="cls-1" d="M68.1,34.63h.68a28.36,28.36,0,0,0-21.23-23.3l-.07.67.63.16A27.67,27.67,0,0,1,68.1,34.63Z"/><path class="cls-1" d="M65.13,51.81A27.71,27.71,0,0,1,45.07,66.05l0,.68c.83-.12,1.65-.28,2.45-.47a28.44,28.44,0,0,0,18.4-14.45Z"/><path class="cls-1" d="M131,48.79a5.79,5.79,0,0,1-2.21-1.38,5.55,5.55,0,0,1-1.26-2,7.53,7.53,0,0,1,0-4.9,5.44,5.44,0,0,1,1.25-2A5.74,5.74,0,0,1,131,37.1a10.49,10.49,0,0,1,6.4,0,5.67,5.67,0,0,1,2.2,1.38,5.39,5.39,0,0,1,1.25,2,7.18,7.18,0,0,1,.41,2.44,7.3,7.3,0,0,1-.41,2.46,5.39,5.39,0,0,1-1.25,2,5.77,5.77,0,0,1-2.2,1.37,9.34,9.34,0,0,1-3.21.49,9.24,9.24,0,0,1-3.18-.49m6.45-2.61a5.06,5.06,0,0,0,0-6.47,5,5,0,0,0-6.53,0,5.06,5.06,0,0,0,0,6.47,5,5,0,0,0,6.53,0"/><path class="cls-1" d="M50.13,36.94H49a21.28,21.28,0,0,0,1.92,3.85l.34.53c1.06,1.62,1.54,2.36,1.25,3s-1.25.78-3.23,1a3.56,3.56,0,0,0-1.78.64h3.95l1.26,3h2.81Z"/><path class="cls-1" d="M51.89,44c.14-.3-.42-1.16-1.2-2.36l-.35-.53a24.12,24.12,0,0,1-2.07-4.2H47.14L41.79,49h2.72l1.25-3h.84a3.39,3.39,0,0,1,2.56-1.28c1.27-.16,2.58-.33,2.73-.66m-5.38.06L48.6,39l2,5.06Z"/><polygon class="cls-1" points="25.11 36.94 28.74 36.94 32.94 46.26 37.11 36.94 40.71 36.94 40.71 48.95 38.34 48.95 38.44 39.03 38.41 39.03 33.97 48.95 31.82 48.95 27.41 39.03 27.38 39.03 27.48 48.95 25.11 48.95 25.11 36.94"/><path class="cls-1" d="M56.55,36.94h7.6a6.56,6.56,0,0,1,1.9.24,3,3,0,0,1,1.26.67,2.45,2.45,0,0,1,.68,1,3.89,3.89,0,0,1,.21,1.32,3.09,3.09,0,0,1-.54,1.87,2.84,2.84,0,0,1-1.44,1v0a1.86,1.86,0,0,1,1.38,1A5.33,5.33,0,0,1,68,46.38c0,.19,0,.38,0,.59a4.48,4.48,0,0,0,.07.69,5.4,5.4,0,0,0,.15.72,2.15,2.15,0,0,0,.27.57H65.75a4.07,4.07,0,0,1-.3-1.82,8.75,8.75,0,0,0-.08-1.23,2.72,2.72,0,0,0-.28-.9,1.4,1.4,0,0,0-.64-.58,2.43,2.43,0,0,0-1.09-.21H59.07V49H56.55Zm6.88,5.38a2.72,2.72,0,0,0,1.62-.39,1.59,1.59,0,0,0,.53-1.37A1.52,1.52,0,0,0,65,39.24a2.63,2.63,0,0,0-1.6-.42H59.07v3.5Z"/><path class="cls-1" d="M80.13,41.38a3.07,3.07,0,0,0-1.23-2.13,4.36,4.36,0,0,0-2.64-.76,3.81,3.81,0,0,0-2.93,1.2,4.89,4.89,0,0,0-1.12,3.47,4.73,4.73,0,0,0,.3,1.71,3.85,3.85,0,0,0,2.22,2.23,4.63,4.63,0,0,0,1.7.3,4.12,4.12,0,0,0,1.6-.28,3,3,0,0,0,1.12-.74,3.59,3.59,0,0,0,.67-1,4.36,4.36,0,0,0,.31-1h2.72a6.77,6.77,0,0,1-.56,1.84,4.81,4.81,0,0,1-1.2,1.56,5.48,5.48,0,0,1-2,1.11,9.75,9.75,0,0,1-3.05.41,7.35,7.35,0,0,1-2.79-.49,5.5,5.5,0,0,1-2-1.38,5.63,5.63,0,0,1-1.2-2,7.61,7.61,0,0,1,0-4.87A5.49,5.49,0,0,1,73.3,37.1a8.26,8.26,0,0,1,3-.49A9.29,9.29,0,0,1,79,37a6.15,6.15,0,0,1,2,1,4.82,4.82,0,0,1,1.85,3.38Z"/><rect class="cls-1" x="84.89" y="36.94" width="2.52" height="12.01"/><path class="cls-1" d="M93.07,48.79a5.71,5.71,0,0,1-2.21-1.38,5.44,5.44,0,0,1-1.27-2,7.7,7.7,0,0,1,0-4.9,5.47,5.47,0,0,1,1.26-2,5.74,5.74,0,0,1,2.21-1.37,10.49,10.49,0,0,1,6.4,0,5.75,5.75,0,0,1,2.2,1.38,5.52,5.52,0,0,1,1.25,2,7.18,7.18,0,0,1,.41,2.44,7.3,7.3,0,0,1-.41,2.46,5.52,5.52,0,0,1-1.25,2,5.85,5.85,0,0,1-2.2,1.37,9.38,9.38,0,0,1-3.21.49,9.24,9.24,0,0,1-3.18-.49m6.45-2.61a5.06,5.06,0,0,0,0-6.47,5,5,0,0,0-6.53,0,5,5,0,0,0,0,6.47,5,5,0,0,0,6.53,0"/><path class="cls-1" d="M109.76,36.94h7.39a4.92,4.92,0,0,1,1.82.3,3,3,0,0,1,1.22.81,3.07,3.07,0,0,1,.66,1.2,4.69,4.69,0,0,1,.2,1.42,4.29,4.29,0,0,1-.22,1.38,3.33,3.33,0,0,1-.71,1.18,3.26,3.26,0,0,1-1.22.83,4.31,4.31,0,0,1-1.71.31h-4.91V49h-2.52Zm2.52,5.55h4A2.84,2.84,0,0,0,118,42.1a1.67,1.67,0,0,0,.53-1.43,2,2,0,0,0-.17-.89,1.4,1.4,0,0,0-.45-.58,1.82,1.82,0,0,0-.65-.29,3.08,3.08,0,0,0-.75-.09h-4.23Z"/><rect class="cls-1" x="122.84" y="36.94" width="2.52" height="12.01"/><path class="cls-1" d="M68.05,52.29h2.89a3.6,3.6,0,0,1,.78.08,1.6,1.6,0,0,1,.6.23,1.17,1.17,0,0,1,.39.46,1.61,1.61,0,0,1,.14.73,1.39,1.39,0,0,1-1.15,1.4v0a1.16,1.16,0,0,1,.78.38,1.24,1.24,0,0,1,.28.79c0,.52,0,.89,0,1.1a1.2,1.2,0,0,0,.11.47h-.37a.72.72,0,0,1-.1-.35,8.83,8.83,0,0,1,0-1,2.41,2.41,0,0,0-.09-.62.78.78,0,0,0-.24-.38.86.86,0,0,0-.43-.2,3.37,3.37,0,0,0-.7-.06H68.42V58h-.37Zm.37,2.77h2.46l.48,0a1.76,1.76,0,0,0,.5-.15,1,1,0,0,0,.45-.39,1.28,1.28,0,0,0,.18-.72,1.19,1.19,0,0,0-.12-.56,1,1,0,0,0-.33-.36,1.45,1.45,0,0,0-.48-.18,2.65,2.65,0,0,0-.58-.06H68.42Z"/><path class="cls-1" d="M73.63,52.3H74v.83h-.37Zm0,1.6H74V58h-.37Z"/><path class="cls-1" d="M74.91,53.9h.37v.8h0a1.79,1.79,0,0,1,.64-.67A2.09,2.09,0,0,1,77,53.77a2.57,2.57,0,0,1,1,.18,1.23,1.23,0,0,1,.56.44,1.36,1.36,0,0,1,.22.52,4.26,4.26,0,0,1,0,.54V58H78.5V55.46a2,2,0,0,0-.07-.57,1.07,1.07,0,0,0-.24-.43,1,1,0,0,0-.46-.28,2.55,2.55,0,0,0-.73-.09,2.2,2.2,0,0,0-.76.12,1.45,1.45,0,0,0-.54.33,1.54,1.54,0,0,0-.32.49,1.49,1.49,0,0,0-.1.55V58h-.37Z"/><path class="cls-1" d="M79.67,55.1a2,2,0,0,1,.45-.69,2,2,0,0,1,.73-.47,2.67,2.67,0,0,1,1-.17,2.61,2.61,0,0,1,1,.17,2,2,0,0,1,.73.47,2,2,0,0,1,.45.69,2.29,2.29,0,0,1,.15.82,2.25,2.25,0,0,1-.15.82,2,2,0,0,1-.45.7,2.19,2.19,0,0,1-.73.47,2.61,2.61,0,0,1-1,.17,2.67,2.67,0,0,1-1-.17,2.19,2.19,0,0,1-.73-.47,2,2,0,0,1-.45-.7,2.25,2.25,0,0,1-.15-.82,2.29,2.29,0,0,1,.15-.82M80,56.61a1.83,1.83,0,0,0,.37.59,1.77,1.77,0,0,0,.61.41,2.14,2.14,0,0,0,.82.15,2.21,2.21,0,0,0,.84-.15,1.73,1.73,0,0,0,.6-.41,1.81,1.81,0,0,0,.49-1.28,2,2,0,0,0-.12-.68,1.9,1.9,0,0,0-.37-.59,1.73,1.73,0,0,0-.61-.41,2.34,2.34,0,0,0-1.65,0,1.56,1.56,0,0,0-.61.41,1.73,1.73,0,0,0-.37.59,2,2,0,0,0,0,1.37"/><path class="cls-1" d="M84.74,53.9h.37v.88h0a1.5,1.5,0,0,1,.62-.71,2.13,2.13,0,0,1,1.18-.3,2.45,2.45,0,0,1,.93.17,1.93,1.93,0,0,1,.68.47,2,2,0,0,1,.41.69,2.3,2.3,0,0,1,.14.83,2.21,2.21,0,0,1-.16.87,2,2,0,0,1-.45.68,2.08,2.08,0,0,1-.69.44,2.23,2.23,0,0,1-.86.16,2,2,0,0,1-1.13-.3,1.92,1.92,0,0,1-.67-.69h0v2.46h-.37Zm1.31.36a1.59,1.59,0,0,0-.59.43,1.64,1.64,0,0,0-.31.58,2.2,2.2,0,0,0-.09.61,1.93,1.93,0,0,0,.17.87,1.48,1.48,0,0,0,.44.59,1.62,1.62,0,0,0,.59.32,2.05,2.05,0,0,0,.65.1,2.15,2.15,0,0,0,.68-.11,1.77,1.77,0,0,0,.58-.34,1.59,1.59,0,0,0,.4-.58,1.92,1.92,0,0,0,.15-.79,1.86,1.86,0,0,0-.49-1.36A1.71,1.71,0,0,0,87,54.09a2.08,2.08,0,0,0-.91.17"/><rect class="cls-1" x="89.77" y="52.3" width="0.36" height="5.66"/><path class="cls-1" d="M91,55.15a1.5,1.5,0,0,1,.53-1.07,2.34,2.34,0,0,1,1.36-.31,3,3,0,0,1,1.4.26,1,1,0,0,1,.46.93v2.27a1.13,1.13,0,0,0,0,.38c0,.07.11.1.23.1a1.12,1.12,0,0,0,.35-.06V58a1.33,1.33,0,0,1-.44.06c-.23,0-.37-.07-.42-.2a2.13,2.13,0,0,1-.08-.69h0a1.62,1.62,0,0,1-.4.49,2.22,2.22,0,0,1-.52.29,3.59,3.59,0,0,1-.52.13,4.19,4.19,0,0,1-.5,0,3.71,3.71,0,0,1-.47,0,2.39,2.39,0,0,1-.52-.14,1.07,1.07,0,0,1-.67-1.07,1.08,1.08,0,0,1,.12-.52,1,1,0,0,1,.33-.35,1.75,1.75,0,0,1,.48-.21,3.49,3.49,0,0,1,.6-.08l1.42-.1a.94.94,0,0,0,.48-.12c.09-.07.13-.22.13-.46a.78.78,0,0,0-.32-.68,2.14,2.14,0,0,0-1.18-.23,1.88,1.88,0,0,0-1.1.24,1.16,1.16,0,0,0-.41.82Zm3.38.54h0a1,1,0,0,1-.65.21L92.34,56a2,2,0,0,0-.86.23.68.68,0,0,0-.31.62.9.9,0,0,0,.13.48.88.88,0,0,0,.33.28,1.33,1.33,0,0,0,.43.13,3.15,3.15,0,0,0,.44,0,2.94,2.94,0,0,0,.65-.07,2.16,2.16,0,0,0,.61-.24A1.36,1.36,0,0,0,94.2,57a1,1,0,0,0,.17-.6Z"/><path class="cls-1" d="M98.87,55.08a.94.94,0,0,0-.4-.75,2.1,2.1,0,0,0-1.14-.24,1.78,1.78,0,0,0-1,.22.69.69,0,0,0-.31.58.57.57,0,0,0,.21.48,1.28,1.28,0,0,0,.6.21l1.29.18a1.89,1.89,0,0,1,1,.34.9.9,0,0,1,.33.77,1,1,0,0,1-.19.63,1.21,1.21,0,0,1-.49.37,2.19,2.19,0,0,1-.62.17c-.21,0-.42,0-.64,0A2.69,2.69,0,0,1,96,57.75a1.25,1.25,0,0,1-.56-1.07h.36a3,3,0,0,0,.08.39.91.91,0,0,0,.22.33,1.42,1.42,0,0,0,.51.26,3.19,3.19,0,0,0,.9.1,2.2,2.2,0,0,0,1.14-.22.76.76,0,0,0,.34-.67.64.64,0,0,0-.21-.52,1.26,1.26,0,0,0-.6-.22l-1.43-.19a2.59,2.59,0,0,1-.4-.09,2.53,2.53,0,0,1-.37-.18.79.79,0,0,1-.26-.31.9.9,0,0,1-.11-.44,1.09,1.09,0,0,1,.08-.39.93.93,0,0,1,.27-.37,1.33,1.33,0,0,1,.53-.28,2.49,2.49,0,0,1,.83-.11,3.3,3.3,0,0,1,.9.11,1.4,1.4,0,0,1,.57.3,1.06,1.06,0,0,1,.3.41,1.53,1.53,0,0,1,.11.49Z"/><path class="cls-1" d="M100.4,52.52h.36V53.9H102v.31h-1.2v2.92a.52.52,0,0,0,.18.47,1.12,1.12,0,0,0,.56.11l.34,0H102V58a3.24,3.24,0,0,1-.61.05c-.41,0-.68-.08-.8-.24a1.38,1.38,0,0,1-.19-.85V54.21h-.92V53.9h.92Z"/><path class="cls-1" d="M102.53,52.3h.36v.83h-.36Zm0,1.6h.36V58h-.36Z"/><path class="cls-1" d="M103.75,55.15a1.5,1.5,0,0,1,.53-1.07,2.34,2.34,0,0,1,1.36-.31A3,3,0,0,1,107,54a1,1,0,0,1,.46.93v2.27a1.13,1.13,0,0,0,0,.38c0,.07.11.1.23.1a1.23,1.23,0,0,0,.36-.06V58a1.44,1.44,0,0,1-.45.06c-.23,0-.36-.07-.42-.2a2.13,2.13,0,0,1-.08-.69h0a1.62,1.62,0,0,1-.4.49,2.22,2.22,0,0,1-.52.29,3.59,3.59,0,0,1-.52.13,4.19,4.19,0,0,1-.5,0l-.47,0a2.39,2.39,0,0,1-.52-.14,1,1,0,0,1-.47-.38,1.11,1.11,0,0,1-.2-.69,1.08,1.08,0,0,1,.12-.52A1,1,0,0,1,104,56a1.75,1.75,0,0,1,.48-.21,3.49,3.49,0,0,1,.6-.08l1.42-.1a.91.91,0,0,0,.48-.12.57.57,0,0,0,.14-.46.78.78,0,0,0-.33-.68,2.11,2.11,0,0,0-1.18-.23,1.9,1.9,0,0,0-1.1.24,1.19,1.19,0,0,0-.41.82Zm3.39.54h0a1,1,0,0,1-.65.21L105.1,56a2,2,0,0,0-.86.23.69.69,0,0,0-.3.62.9.9,0,0,0,.12.48.84.84,0,0,0,.34.28,1.21,1.21,0,0,0,.42.13,3.15,3.15,0,0,0,.44,0,2.94,2.94,0,0,0,.65-.07,2.16,2.16,0,0,0,.61-.24A1.51,1.51,0,0,0,107,57a1.08,1.08,0,0,0,.17-.6Z"/><path class="cls-1" d="M68,62.64a2.79,2.79,0,0,1,.51-1,2.5,2.5,0,0,1,.94-.74,3.13,3.13,0,0,1,1.39-.29,3.18,3.18,0,0,1,1.4.29,2.58,2.58,0,0,1,.94.74,3.18,3.18,0,0,1,.51,1,3.18,3.18,0,0,1,0,1.93,3.18,3.18,0,0,1-.51,1,2.72,2.72,0,0,1-.94.75,3.58,3.58,0,0,1-2.8,0,2.69,2.69,0,0,1-.94-.74,2.94,2.94,0,0,1-.5-1,3,3,0,0,1,0-1.93m.38,2a2.49,2.49,0,0,0,.51.84,2.41,2.41,0,0,0,.84.59,3,3,0,0,0,2.22,0,2.41,2.41,0,0,0,.84-.59,2.38,2.38,0,0,0,.51-.85,2.79,2.79,0,0,0,0-2,2.38,2.38,0,0,0-.51-.85,2.41,2.41,0,0,0-.84-.59,3,3,0,0,0-2.22,0,2.41,2.41,0,0,0-.84.59,2.54,2.54,0,0,0-.51.85,2.72,2.72,0,0,0-.18,1,2.8,2.8,0,0,0,.18,1"/><path class="cls-1" d="M74.88,61h.37v1.37h1.2v.31h-1.2v2.93a.53.53,0,0,0,.17.46,1,1,0,0,0,.56.11l.34,0h.17v.31a2.61,2.61,0,0,1-.62.05,1,1,0,0,1-.8-.24,1.43,1.43,0,0,1-.19-.85V62.69H74v-.31h.92Z"/><path class="cls-1" d="M76.9,63.59a1.92,1.92,0,0,1,.45-.7,2,2,0,0,1,.73-.47,2.77,2.77,0,0,1,1.91,0,2,2,0,0,1,.73.47,1.92,1.92,0,0,1,.45.7,2.25,2.25,0,0,1,.15.82,2.33,2.33,0,0,1-.15.82,2,2,0,0,1-.45.69,2,2,0,0,1-.73.47,2.77,2.77,0,0,1-1.91,0,2,2,0,0,1-.73-.47,2,2,0,0,1-.45-.69,2.34,2.34,0,0,1-.16-.82,2.26,2.26,0,0,1,.16-.82m.33,1.5a1.73,1.73,0,0,0,.37.59,1.64,1.64,0,0,0,.61.41,2.14,2.14,0,0,0,.82.15,2.24,2.24,0,0,0,.84-.15,1.6,1.6,0,0,0,.6-.41,1.9,1.9,0,0,0,.37-.59,2,2,0,0,0,0-1.37,1.9,1.9,0,0,0-.37-.59,1.87,1.87,0,0,0-.61-.41,2.34,2.34,0,0,0-1.65,0,1.68,1.68,0,0,0-.61.41,1.59,1.59,0,0,0-.37.59,2,2,0,0,0,0,1.37"/><path class="cls-1" d="M82,62.38h.37v1h0a1.54,1.54,0,0,1,.64-.81,1.86,1.86,0,0,1,1-.28,1.17,1.17,0,0,1,.3,0v.36a.76.76,0,0,0-.16,0l-.26,0a1.47,1.47,0,0,0-1.16.48,1.69,1.69,0,0,0-.41,1.15v2.19H82Z"/><path class="cls-1" d="M84.76,62.38h.36v1h0a1.5,1.5,0,0,1,.64-.81,1.86,1.86,0,0,1,1-.28,1.17,1.17,0,0,1,.3,0v.36a.76.76,0,0,0-.16,0l-.26,0a1.45,1.45,0,0,0-1.16.48,1.7,1.7,0,0,0-.42,1.15v2.19h-.36Z"/><path class="cls-1" d="M87.58,60.78h.36v.84h-.36Zm0,1.6h.36v4.05h-.36Z"/><path class="cls-1" d="M88.86,62.38h.37v.81h0a1.81,1.81,0,0,1,.64-.68A2.09,2.09,0,0,1,91,62.25a2.57,2.57,0,0,1,1,.18,1.3,1.3,0,0,1,.56.44,1.36,1.36,0,0,1,.22.52,4.26,4.26,0,0,1,0,.54v2.5h-.37V64a2,2,0,0,0-.07-.58,1.14,1.14,0,0,0-.24-.43,1.09,1.09,0,0,0-.46-.28,2.55,2.55,0,0,0-.73-.09,2.2,2.2,0,0,0-.76.12,1.35,1.35,0,0,0-.54.34,1.27,1.27,0,0,0-.32.48,1.49,1.49,0,0,0-.1.55v2.37h-.37Z"/><path class="cls-1" d="M93.62,63.59a1.92,1.92,0,0,1,.45-.7,2,2,0,0,1,.73-.47,2.67,2.67,0,0,1,1-.17,2.61,2.61,0,0,1,1,.17,2,2,0,0,1,.73.47,1.92,1.92,0,0,1,.45.7,2.25,2.25,0,0,1,.15.82,2.33,2.33,0,0,1-.15.82,2,2,0,0,1-.45.69,2,2,0,0,1-.73.47,2.61,2.61,0,0,1-1,.17,2.67,2.67,0,0,1-1-.17,2,2,0,0,1-.73-.47,2,2,0,0,1-.45-.69,2.33,2.33,0,0,1-.15-.82,2.25,2.25,0,0,1,.15-.82m.33,1.5a1.73,1.73,0,0,0,.37.59,1.64,1.64,0,0,0,.61.41,2.14,2.14,0,0,0,.82.15,2.21,2.21,0,0,0,.84-.15,1.6,1.6,0,0,0,.6-.41,1.9,1.9,0,0,0,.37-.59,2,2,0,0,0,0-1.37,1.9,1.9,0,0,0-.37-.59,1.87,1.87,0,0,0-.61-.41,2.34,2.34,0,0,0-1.65,0,1.68,1.68,0,0,0-.61.41,1.73,1.73,0,0,0-.37.59,2,2,0,0,0,0,1.37"/><rect class="cls-1" x="98.72" y="60.78" width="0.36" height="5.66"/><path class="cls-1" d="M100,63.63a1.52,1.52,0,0,1,.53-1.07,2.34,2.34,0,0,1,1.36-.31,2.8,2.8,0,0,1,1.39.27,1,1,0,0,1,.47.92v2.27a1.13,1.13,0,0,0,0,.38c0,.07.11.11.23.11a1.15,1.15,0,0,0,.35-.07v.32a1.33,1.33,0,0,1-.44.06c-.23,0-.37-.06-.42-.2a2.1,2.1,0,0,1-.08-.68h0a1.71,1.71,0,0,1-.4.48,2.44,2.44,0,0,1-.52.29,2.82,2.82,0,0,1-.52.13,4.19,4.19,0,0,1-.5,0,3.71,3.71,0,0,1-.47,0,1.93,1.93,0,0,1-.52-.14,1.07,1.07,0,0,1-.67-1.07,1,1,0,0,1,.12-.51,1,1,0,0,1,.33-.36,1.48,1.48,0,0,1,.48-.2,2.7,2.7,0,0,1,.6-.09l1.42-.1a.85.85,0,0,0,.48-.12c.09-.07.13-.22.13-.45a.8.8,0,0,0-.33-.69,2.16,2.16,0,0,0-1.17-.23,1.88,1.88,0,0,0-1.1.24,1.18,1.18,0,0,0-.41.82Zm3.38.54h0a1,1,0,0,1-.65.21l-1.37.1a1.81,1.81,0,0,0-.87.23.66.66,0,0,0-.3.61.9.9,0,0,0,.13.48.74.74,0,0,0,.33.28,1.33,1.33,0,0,0,.43.13,3.15,3.15,0,0,0,.44,0,2.94,2.94,0,0,0,.65-.07,2.16,2.16,0,0,0,.61-.24,1.36,1.36,0,0,0,.44-.42,1,1,0,0,0,.17-.6Z"/><path class="cls-1" d="M104.7,62.38h.37v1h0a1.59,1.59,0,0,1,.64-.81,1.88,1.88,0,0,1,1-.28,1.17,1.17,0,0,1,.3,0v.36a.65.65,0,0,0-.16,0l-.26,0a1.47,1.47,0,0,0-1.16.48,1.74,1.74,0,0,0-.41,1.15v2.19h-.37Z"/><path class="cls-1" d="M107.52,60.78h.37v.84h-.37Zm0,1.6h.37v4.05h-.37Z"/><path class="cls-1" d="M108.81,62.38h.36v.81h0a1.67,1.67,0,0,1,.64-.68,2,2,0,0,1,1.07-.26,2.52,2.52,0,0,1,1,.18,1.4,1.4,0,0,1,.57.44,1.5,1.5,0,0,1,.21.52,3,3,0,0,1,0,.54v2.5h-.36V64a2,2,0,0,0-.08-.58,1,1,0,0,0-.23-.43,1.13,1.13,0,0,0-.47-.28,2.55,2.55,0,0,0-.73-.09,2.24,2.24,0,0,0-.76.12,1.35,1.35,0,0,0-.54.34,1.39,1.39,0,0,0-.32.48,1.49,1.49,0,0,0-.1.55v2.37h-.36Z"/><path class="cls-1" d="M117.53,62.38h.36v3.85a2.75,2.75,0,0,1-.09.73,1.52,1.52,0,0,1-1,1.05,3.22,3.22,0,0,1-1.12.17,2.83,2.83,0,0,1-1.48-.32,1.36,1.36,0,0,1-.62-1h.37a1.1,1.1,0,0,0,.47.78,2.31,2.31,0,0,0,1.26.27,2.78,2.78,0,0,0,.94-.14,1.35,1.35,0,0,0,.57-.37,1.29,1.29,0,0,0,.27-.5,2.35,2.35,0,0,0,.08-.6v-.84h0a1.61,1.61,0,0,1-.75.73,2.47,2.47,0,0,1-1.15.25,2.7,2.7,0,0,1-1-.17,1.78,1.78,0,0,1-.69-.46,1.82,1.82,0,0,1-.39-.67,2.36,2.36,0,0,1-.13-.8,2.19,2.19,0,0,1,.13-.77,2.05,2.05,0,0,1,.4-.66,2,2,0,0,1,.7-.45,3.12,3.12,0,0,1,2.06,0,1.57,1.57,0,0,1,.47.3,1.41,1.41,0,0,1,.34.45h0Zm-2.61.29a1.61,1.61,0,0,0-.59.32,1.39,1.39,0,0,0-.41.54,1.73,1.73,0,0,0-.15.75,1.78,1.78,0,0,0,.49,1.33,2,2,0,0,0,1.4.46,2,2,0,0,0,1.35-.46,1.68,1.68,0,0,0,.52-1.34A1.58,1.58,0,0,0,117,63a2,2,0,0,0-1.4-.45,2.28,2.28,0,0,0-.7.1"/><path class="cls-1" d="M118.7,63.59a1.92,1.92,0,0,1,.45-.7,2,2,0,0,1,.73-.47,2.59,2.59,0,0,1,1-.17,2.65,2.65,0,0,1,1,.17,1.92,1.92,0,0,1,.72.47,2.08,2.08,0,0,1,.46.7,2.25,2.25,0,0,1,.15.82,2.33,2.33,0,0,1-.15.82,2.14,2.14,0,0,1-.46.69,1.92,1.92,0,0,1-.72.47,2.65,2.65,0,0,1-1,.17,2.59,2.59,0,0,1-1-.17,2,2,0,0,1-.73-.47,2,2,0,0,1-.45-.69,2.14,2.14,0,0,1-.16-.82,2.07,2.07,0,0,1,.16-.82m.33,1.5a1.59,1.59,0,0,0,.37.59,1.56,1.56,0,0,0,.61.41,2.1,2.1,0,0,0,.82.15,2.16,2.16,0,0,0,.83-.15,1.56,1.56,0,0,0,.61-.41,1.71,1.71,0,0,0,.36-.59,1.87,1.87,0,0,0,0-1.37,1.59,1.59,0,0,0-.37-.59,1.73,1.73,0,0,0-.6-.41,2.16,2.16,0,0,0-.83-.15,2.19,2.19,0,0,0-.83.15,1.77,1.77,0,0,0-.61.41,1.71,1.71,0,0,0-.36.59,2,2,0,0,0,0,1.37"/><rect class="cls-1" x="123.8" y="60.78" width="0.36" height="5.66"/><path class="cls-1" d="M125,63.59a1.92,1.92,0,0,1,.45-.7,2,2,0,0,1,.73-.47,2.69,2.69,0,0,1,1-.17,2.59,2.59,0,0,1,1,.17,2,2,0,0,1,.73.47,1.92,1.92,0,0,1,.45.7,2.25,2.25,0,0,1,.15.82,2.33,2.33,0,0,1-.15.82,2,2,0,0,1-.45.69,2,2,0,0,1-.73.47,2.59,2.59,0,0,1-1,.17,2.69,2.69,0,0,1-1-.17,2,2,0,0,1-.73-.47,2,2,0,0,1-.45-.69,2.33,2.33,0,0,1-.15-.82,2.25,2.25,0,0,1,.15-.82m.33,1.5a1.9,1.9,0,0,0,.37.59,1.73,1.73,0,0,0,.61.41,2.16,2.16,0,0,0,.83.15,2.19,2.19,0,0,0,.83-.15,1.6,1.6,0,0,0,.6-.41,1.73,1.73,0,0,0,.37-.59,2,2,0,0,0,0-1.37,1.73,1.73,0,0,0-.37-.59,1.77,1.77,0,0,0-.61-.41,2.1,2.1,0,0,0-.82-.15,2.16,2.16,0,0,0-.83.15,1.68,1.68,0,0,0-.61.41,1.9,1.9,0,0,0-.37.59,2,2,0,0,0,0,1.37"/><path class="cls-1" d="M134,62.38h.36v3.85a2.75,2.75,0,0,1-.09.73,1.46,1.46,0,0,1-.33.61,1.52,1.52,0,0,1-.68.44,3.26,3.26,0,0,1-1.12.17,2.89,2.89,0,0,1-1.49-.32,1.38,1.38,0,0,1-.61-1h.37a1,1,0,0,0,.47.78,2.31,2.31,0,0,0,1.26.27,2.78,2.78,0,0,0,.94-.14,1.41,1.41,0,0,0,.57-.37,1.29,1.29,0,0,0,.27-.5,2.35,2.35,0,0,0,.08-.6v-.84h0a1.65,1.65,0,0,1-.75.73,2.47,2.47,0,0,1-1.15.25,2.7,2.7,0,0,1-1-.17,1.78,1.78,0,0,1-.69-.46,2,2,0,0,1-.4-.67,2.63,2.63,0,0,1-.12-.8,2.19,2.19,0,0,1,.13-.77,1.89,1.89,0,0,1,.4-.66,1.92,1.92,0,0,1,.7-.45,3.1,3.1,0,0,1,2.05,0,1.61,1.61,0,0,1,.48.3,1.41,1.41,0,0,1,.34.45h0Zm-2.61.29a1.61,1.61,0,0,0-.59.32,1.39,1.39,0,0,0-.41.54,1.73,1.73,0,0,0-.15.75,1.78,1.78,0,0,0,.49,1.33,2,2,0,0,0,1.4.46,2,2,0,0,0,1.35-.46,1.72,1.72,0,0,0,.52-1.34,1.58,1.58,0,0,0-.51-1.25,2,2,0,0,0-1.4-.45,2.24,2.24,0,0,0-.7.1"/><path class="cls-1" d="M135.24,60.78h.36v.84h-.36Zm0,1.6h.36v4.05h-.36Z"/><path class="cls-1" d="M136.47,63.63a1.49,1.49,0,0,1,.53-1.07,2.28,2.28,0,0,1,1.35-.31,2.87,2.87,0,0,1,1.4.27,1,1,0,0,1,.46.92v2.27a1.07,1.07,0,0,0,0,.38c0,.07.1.11.22.11a1.27,1.27,0,0,0,.36-.07v.32a1.37,1.37,0,0,1-.44.06c-.23,0-.37-.06-.42-.2a1.85,1.85,0,0,1-.08-.68h0a1.71,1.71,0,0,1-.4.48,2.16,2.16,0,0,1-.51.29,2.91,2.91,0,0,1-.53.13,4,4,0,0,1-.49,0,3.87,3.87,0,0,1-.48,0,1.93,1.93,0,0,1-.52-.14,1.13,1.13,0,0,1-.47-.38,1.11,1.11,0,0,1-.2-.69,1,1,0,0,1,.12-.51,1,1,0,0,1,.33-.36,1.48,1.48,0,0,1,.48-.2,2.7,2.7,0,0,1,.6-.09l1.42-.1a.89.89,0,0,0,.49-.12.6.6,0,0,0,.13-.45.8.8,0,0,0-.33-.69,2.21,2.21,0,0,0-1.18-.23,1.93,1.93,0,0,0-1.1.24,1.26,1.26,0,0,0-.41.82Zm3.38.54h0a1,1,0,0,1-.65.21l-1.37.1a1.76,1.76,0,0,0-.86.23.66.66,0,0,0-.3.61.82.82,0,0,0,.13.48.69.69,0,0,0,.33.28,1.28,1.28,0,0,0,.42.13,3.25,3.25,0,0,0,.44,0,2.81,2.81,0,0,0,.65-.07,2,2,0,0,0,.61-.24,1.4,1.4,0,0,0,.45-.42,1.08,1.08,0,0,0,.17-.6Z"/></g></g></svg>